<?xml version="1.0" encoding="UTF-8"?>
<!DOCTYPE svg PUBLIC "-//W3C//DTD SVG 1.1//EN" "http://www.w3.org/Graphics/SVG/1.1/DTD/svg11.dtd">
<!-- Creator: CorelDRAW -->
<svg xmlns="http://www.w3.org/2000/svg" xml:space="preserve" width="6.24882in" height="6.23578in" version="1.1" style="shape-rendering:geometricPrecision; text-rendering:geometricPrecision; image-rendering:optimizeQuality; fill-rule:evenodd; clip-rule:evenodd"
viewBox="0 0 6249 6236"
 xmlns:xlink="http://www.w3.org/1999/xlink">
 <defs>
  <style type="text/css">
   <![CDATA[
    .fil3 {fill:none}
    .fil5 {fill:#FEFEFE}
    .fil4 {fill:#373435}
    .fil2 {fill:#813B8E}
    .fil0 {fill:black}
    .fil1 {fill:white}
    .fil8 {fill:#FEFEFE;fill-rule:nonzero}
    .fil6 {fill:#373435;fill-rule:nonzero}
    .fil7 {fill:url(#id1)}
   ]]>
  </style>
    <clipPath id="id0">
     <path d="M1907 2137c142,282 -65,341 -63,512 4,228 269,519 456,543 258,32 352,178 447,313 270,-183 514,-165 736,21 400,-278 264,-397 -22,-471 75,127 193,202 85,271 -178,-255 -636,-228 -629,-384 5,-82 133,-126 215,-122 269,15 461,242 725,344 259,0 517,0 776,0 -151,-184 -499,-168 -740,-187 -36,-3 -84,-40 -80,-77 8,-58 219,-13 348,2 176,21 345,-8 481,-36 -125,-141 -1087,-81 -1096,-209 -4,-59 120,-70 186,-69 188,0 372,53 559,70 202,19 342,-35 389,-169 -173,24 -351,18 -525,0 -204,-20 -397,-114 -605,-114 -175,0 -544,162 -556,-115 -3,-72 54,-167 134,-150 242,52 532,178 751,172 218,-6 395,-102 481,-213 -115,52 -242,83 -364,73 -232,-20 -358,-104 -484,-164 -241,-114 -379,-223 -525,-217 -253,12 -349,366 -524,548 -46,0 -92,0 -138,0 -43,39 -92,98 -91,172 2,103 47,164 49,310 2,103 -21,190 -78,210 -69,-52 -98,-272 -73,-396 50,-253 -38,-343 -225,-468z"/>
    </clipPath>
  <linearGradient id="id1" gradientUnits="userSpaceOnUse" x1="3662.73" y1="1918.96" x2="3662.73" y2="3900.49">
   <stop offset="0" style="stop-opacity:1; stop-color:#FFF688"/>
   <stop offset="1" style="stop-opacity:1; stop-color:#ED3237"/>
  </linearGradient>
 </defs>
 <g id="Layer_x0020_1">
  <metadata id="CorelCorpID_0Corel-Layer"/>
  <g id="Universitas_x0020_Gunadarma_x0020__x005b_KoleksiLogo.com_x005d_.cdr">
   <path class="fil0" d="M5029 5953c-1272,366 -2543,389 -3811,0l-24 -8 -14 -19c-826,-1116 -1145,-2264 -1179,-3634l-1 -27 16 -21c811,-1043 1846,-1778 3082,-2234l26 -10 27 10c521,198 1007,436 1471,748 610,411 1139,919 1608,1484l19 23 -2 29c-28,579 -113,1138 -279,1695 -204,685 -518,1327 -896,1932l-16 24 -27 8z"/>
   <path class="fil1" d="M3124 80c911,346 1955,892 3049,2210 -53,1073 -297,2204 -1165,3591 -1272,366 -2525,381 -3768,0 -843,-1138 -1131,-2287 -1165,-3591 901,-1158 1991,-1820 3049,-2210z"/>
   <path class="fil0" d="M3140 177c231,87 457,184 679,293 249,124 489,263 720,418 580,391 1084,874 1529,1411l11 14 0 17c-13,263 -38,526 -79,786 -44,279 -106,555 -187,826 -194,652 -492,1262 -853,1837l-9 15 -16 4c-1209,348 -2417,370 -3622,0l-14 -4 -9 -12c-785,-1060 -1087,-2151 -1120,-3453l-1 -16 10 -13c771,-992 1754,-1690 2930,-2124l15 -5 16 6z"/>
   <path class="fil1" d="M3124 218c870,331 1866,852 2910,2110 -50,1024 -283,2104 -1112,3427 -1213,349 -2410,364 -3596,0 -805,-1086 -1080,-2183 -1112,-3427 859,-1106 1900,-1737 2910,-2110z"/>
   <path class="fil2" d="M3120 1370c1053,0 1907,854 1907,1907 0,1053 -854,1907 -1907,1907 -1053,0 -1907,-854 -1907,-1907 0,-1053 854,-1907 1907,-1907z"/>
   <path class="fil3" d="M3832 3817c-337,402 -835,634 -1359,634 -525,0 -1022,-232 -1360,-634"/>
   <path class="fil4" d="M786 3404c112,0 204,92 204,204 0,113 -92,204 -204,204 -113,0 -204,-91 -204,-204 0,-112 91,-204 204,-204z"/>
   <path class="fil4" d="M5329 3404c112,0 204,92 204,204 0,113 -92,204 -204,204 -113,0 -204,-91 -204,-204 0,-112 91,-204 204,-204z"/>
   <path class="fil3" d="M1009 3423c-4,-48 -5,-97 -5,-146 0,-1159 939,-2098 2098,-2098 1159,0 2099,939 2099,2098 0,110 -9,220 -26,328"/>
   <path class="fil3" d="M5053 3987c-298,821 -1078,1367 -1951,1367 -873,0 -1653,-546 -1951,-1367"/>
   <path class="fil4" d="M1120 4487c20,-12 33,-21 37,-29 4,-8 4,-18 1,-30l13 -8 91 164 -14 7c-8,-9 -17,-15 -26,-15 -9,-1 -23,5 -44,16l-72 40c-21,12 -33,21 -37,29 -5,8 -5,18 -1,30l-13 7 -42 -76c-9,-17 -20,-36 -33,-56 -12,-20 -19,-32 -21,-36 -36,-63 -46,-123 -32,-178 14,-56 51,-100 110,-133 51,-29 100,-36 145,-22 45,14 83,48 112,101 9,17 18,36 25,58 8,22 13,35 16,39 2,5 6,9 11,14 4,4 11,9 20,14l-105 79 -7 -12c16,-27 25,-51 27,-73 2,-22 -3,-43 -14,-64 -17,-30 -40,-48 -71,-54 -30,-6 -64,1 -100,21 -45,25 -76,55 -95,91 -20,36 -21,68 -6,95 8,14 17,22 26,24 10,2 26,-3 48,-15l51 -28zm493 512c-1,1 -2,2 -4,4 -21,25 -37,42 -46,51 -35,34 -70,50 -107,46 -37,-3 -76,-26 -117,-67 -40,-40 -61,-75 -65,-106 -3,-31 11,-63 43,-95 2,-2 8,-7 17,-16 6,-6 12,-11 16,-15l110 -101 6 -6c16,-17 25,-29 27,-38 1,-8 -3,-18 -12,-28l11 -12 140 140 -11 12c-13,-10 -26,-12 -39,-9 -13,4 -31,18 -55,41l-89 84c-4,4 -8,8 -13,13 -4,4 -10,10 -17,17 -20,20 -30,39 -31,58 -1,19 8,38 27,57 20,20 40,29 61,26 20,-3 44,-17 70,-44 5,-4 8,-8 10,-10 3,-3 5,-5 7,-7l67 -75c28,-31 44,-54 49,-69 5,-15 2,-30 -9,-43l12 -12 99 99 -11 12c-11,-9 -23,-13 -34,-12 -12,1 -24,7 -34,17 -4,4 -7,7 -9,10 -3,3 -5,5 -8,8l-61 70zm271 73c13,-21 19,-36 19,-44 0,-8 -4,-16 -12,-23l8 -14 191 114 -9 14c-5,0 -9,0 -12,1 -4,1 -6,3 -8,6 -1,2 -2,6 -2,10 0,5 0,9 1,13l22 112 31 -52c12,-21 19,-35 19,-43 0,-8 -4,-16 -12,-23l8 -15 93 56 -9 14c-10,-4 -19,-4 -26,0 -7,4 -17,17 -30,38l-123 205c-13,22 -19,36 -19,44 -1,8 4,16 12,23l-9 15 -99 -60 8 -14c13,6 23,8 30,6 8,-3 17,-12 26,-29l7 -11 -60 -320 -121 202c-15,24 -22,41 -22,51 1,10 6,19 18,27l-8 14 -100 -60 8 -14c11,4 20,4 27,0 7,-4 17,-16 29,-37l124 -206zm538 394c16,6 30,13 42,22 12,8 23,18 32,28l-3 -148 -71 98zm43 -143c1,-2 3,-5 4,-8 2,-2 3,-5 4,-7 1,-5 1,-9 -1,-12 -1,-4 -5,-8 -9,-12l4 -16 173 50 -4 16c-6,0 -10,2 -14,4 -3,2 -6,5 -7,9 0,2 -1,4 -1,7 0,3 0,7 0,12l13 280c1,26 4,44 8,52 4,9 11,15 21,18l-5 16 -194 -56 4 -16c11,2 20,0 26,-3 6,-4 10,-11 13,-20 7,-25 0,-50 -19,-76 -20,-25 -48,-45 -86,-58l-40 56c-5,7 -9,14 -13,20 -3,6 -5,12 -7,16 -2,9 -2,16 2,22 4,6 11,11 20,14l-4 16 -129 -37 5 -16c13,1 25,-2 36,-8 10,-6 25,-22 43,-47l157 -216zm427 431l0 -16c11,-2 19,-6 23,-13 4,-7 6,-23 7,-48l4 -240c0,-25 -1,-40 -5,-48 -4,-7 -12,-11 -23,-13l1 -17 184 3c30,1 57,5 81,12 23,7 45,18 64,32 29,21 51,48 67,80 16,32 23,66 23,103 -1,26 -6,50 -16,72 -11,22 -25,41 -44,57 -18,15 -37,25 -59,31 -21,7 -50,10 -85,9l-222 -4zm152 -89l0 11c-1,18 2,29 6,34 5,4 15,6 30,7 34,0 60,-11 79,-35 19,-24 29,-57 30,-100 0,-49 -10,-90 -31,-125 -21,-34 -47,-51 -77,-51 -12,-1 -20,3 -25,9 -6,7 -8,21 -9,41l-3 209zm562 -158c17,-2 33,-3 47,-2 15,1 29,4 42,9l-76 -127 -13 120zm-35 -145c1,-3 1,-6 1,-9 0,-3 -1,-5 -1,-8 -1,-4 -4,-8 -7,-10 -3,-2 -7,-4 -13,-5l-4 -16 174 -44 4 16c-4,3 -7,7 -9,11 -2,3 -3,7 -2,11 0,2 1,4 2,7 2,2 4,6 6,10l152 236c14,22 25,36 33,41 8,6 17,7 27,5l4 16 -197 49 -4 -16c10,-4 17,-10 20,-16 4,-6 4,-14 2,-23 -6,-25 -24,-44 -54,-56 -30,-13 -65,-15 -104,-8l-6 69c-1,8 -1,16 -1,23 0,8 1,13 2,18 2,9 6,15 12,18 7,4 15,4 24,1l4 16 -129 33 -4 -16c12,-6 21,-14 27,-25 6,-11 11,-31 14,-62l27 -266zm610 -106c22,-20 37,-41 44,-62 7,-20 5,-40 -5,-58 -7,-13 -16,-21 -27,-23 -10,-2 -23,2 -39,10 -14,8 -22,15 -26,21 -3,6 -1,15 6,28l47 84zm-22 271l-8 -14c9,-7 13,-15 14,-23 0,-8 -6,-23 -18,-44l-117 -210c-11,-22 -21,-35 -28,-39 -7,-4 -16,-4 -26,-1l-8 -14 243 -135c25,-14 47,-20 64,-18 17,2 31,13 42,32 9,16 12,34 9,53 -3,20 -13,44 -31,74 23,7 47,19 71,33 25,15 53,35 83,60 1,1 2,1 3,2 29,23 51,32 66,27l8 14 -162 90 -8 -15c6,-7 9,-12 9,-17 1,-4 0,-9 -3,-14 -7,-14 -25,-30 -53,-48 -28,-19 -58,-33 -90,-42l-17 17 51 92c12,21 22,34 29,38 7,4 15,5 26,1l8 15 -157 86zm549 -775l77 235 -235 -80 155 155c20,19 35,30 44,32 10,3 20,-1 31,-10l12 12 -82 82 -12 -12c6,-9 9,-17 7,-25 -3,-8 -12,-21 -30,-38l-169 -170c-18,-17 -31,-27 -38,-29 -8,-2 -17,0 -26,6l-12 -11 137 -137 12 12c-2,3 -3,7 -2,10 0,3 2,6 4,9 1,1 4,2 7,4 3,2 8,4 13,6l87 34 -30 -92 0 -1c-3,-10 -6,-17 -8,-19 -3,-3 -6,-4 -9,-5 -3,0 -7,0 -11,2l-11 -12 130 -130 11 12c-6,9 -8,17 -6,25 2,8 12,21 29,38l170 170c17,17 30,27 38,29 8,2 16,0 25,-6l12 12 -132 132 -12 -12c9,-11 13,-21 10,-30 -2,-10 -13,-24 -33,-44l-153 -154zm365 -303c10,-13 20,-25 31,-34 11,-10 23,-18 36,-25l-145 -33 78 92zm-129 -75c-1,-2 -4,-4 -6,-6 -2,-2 -4,-4 -7,-5 -3,-3 -7,-3 -11,-3 -4,1 -9,3 -14,7l-14 -9 90 -156 14 9c0,5 0,10 1,14 2,4 4,7 7,9 2,1 4,2 7,3 2,1 6,2 11,3l275 55c26,5 44,6 53,4 9,-1 17,-7 22,-15l14 8 -101 175 -14 -8c4,-10 5,-19 3,-26 -3,-6 -8,-12 -17,-17 -22,-13 -48,-13 -77,0 -30,13 -56,36 -78,69l45 52c6,7 11,13 16,18 6,4 10,8 14,10 8,5 16,6 22,4 7,-2 13,-8 18,-16l14 8 -67 116 -14 -8c5,-14 5,-26 1,-38 -3,-11 -15,-29 -35,-52l-172 -205z"/>
   <path class="fil5" d="M3186 3968l253 -239 338 -321 -676 0 -676 0 338 321 254 239c20,-32 50,-52 84,-52 34,0 64,20 85,52z"/>
   <path class="fil6" d="M3188 3945l551 -521 -1275 0 551 522c9,-12 20,-22 32,-29 16,-11 35,-17 54,-17 20,0 38,6 55,17 12,7 22,17 32,28zm262 -205l-267 252 -10 -15c-9,-15 -21,-27 -33,-35 -12,-7 -25,-11 -39,-11 -13,0 -26,4 -38,11 -13,8 -24,20 -33,35l-10 15 -633 -599 1428 0 -365 347z"/>
   <path class="fil5" d="M3101 3916c62,0 112,67 112,151 0,83 -50,151 -112,151 -61,0 -111,-68 -111,-151 0,-84 50,-151 111,-151z"/>
   <path class="fil6" d="M3101 3900c36,0 68,20 91,51 22,30 36,71 36,116 0,45 -14,86 -36,116 -23,31 -55,50 -91,50 -36,0 -68,-19 -91,-50 -22,-30 -35,-71 -35,-116 0,-45 13,-86 35,-116 23,-31 55,-51 91,-51zm67 69c-18,-24 -41,-38 -67,-38 -25,0 -49,14 -66,38 -19,25 -30,59 -30,98 0,38 11,73 30,98 17,23 41,38 66,38 26,0 49,-15 67,-38 18,-25 29,-60 29,-98 0,-39 -11,-73 -29,-98z"/>
   <path class="fil5" d="M3212 4224c0,45 -50,81 -111,81 -61,0 -110,-36 -110,-81 0,-21 11,-40 29,-55 20,30 49,49 81,49 32,0 62,-19 82,-49 18,15 29,34 29,55z"/>
   <path class="fil6" d="M3227 4224c0,28 -15,52 -39,70 -22,16 -53,27 -87,27 -34,0 -64,-11 -87,-27 -24,-18 -38,-42 -38,-70 0,-13 3,-25 9,-36 6,-12 14,-22 25,-30l13 -11 9 14c9,13 20,24 32,31 12,7 24,11 37,11 13,0 26,-4 37,-11 12,-7 23,-18 32,-31l10 -14 12 11c11,8 20,18 26,30 6,11 9,23 9,36zm-57 45c16,-12 26,-28 26,-45 0,-8 -2,-15 -5,-22 -2,-4 -4,-7 -7,-10 -9,11 -19,20 -31,26 -15,10 -33,15 -52,15 -18,0 -36,-5 -52,-15 -11,-6 -22,-15 -31,-26 -2,3 -5,6 -6,10 -4,7 -6,14 -6,22 0,17 10,33 26,45 18,13 42,21 69,21 27,0 52,-8 69,-21z"/>
   <path class="fil5" d="M3194 4268l0 247c-22,9 -35,23 -35,38 0,14 13,28 35,37l0 334c0,28 -42,52 -93,52 -51,0 -92,-24 -92,-52l0 -332c23,-10 38,-24 38,-39 0,-16 -15,-30 -38,-40l0 -245c19,23 53,37 92,37 39,0 73,-14 93,-37z"/>
   <path class="fil6" d="M3209 4268l0 257 -9 4c-9,4 -16,8 -21,13 -3,4 -5,7 -5,11 0,3 2,6 5,10 5,5 12,10 21,13l9 5 0 343c0,20 -13,38 -35,50 -19,10 -45,17 -73,17 -28,0 -54,-7 -73,-17 -21,-12 -35,-30 -35,-50l0 -342 10 -4c10,-4 18,-9 23,-15 3,-3 5,-7 5,-10 0,-4 -2,-8 -5,-11 -5,-6 -13,-11 -23,-15l-10 -3 0 -296 27 30c8,10 20,18 34,23 14,6 30,9 47,9 17,0 33,-3 47,-9 14,-5 26,-13 34,-23l27 -30 0 40zm-30 237l0 -205c-6,4 -13,7 -19,10 -18,7 -38,11 -59,11 -21,0 -41,-4 -58,-11 -7,-3 -13,-6 -19,-10l0 204c9,4 17,10 24,16 9,10 14,21 14,33 0,11 -5,22 -14,32 -7,6 -15,12 -24,17l0 322c0,8 7,16 19,23 15,8 35,13 58,13 23,0 44,-5 58,-13 12,-7 20,-15 20,-23l0 -324c-9,-5 -17,-10 -22,-17 -9,-9 -13,-19 -13,-30 0,-12 4,-22 13,-31 5,-6 13,-12 22,-17z"/>
   <path class="fil5" d="M3215 4711c0,28 -51,52 -114,52 -62,0 -113,-24 -113,-52 0,-29 51,-52 113,-52 63,0 114,23 114,52z"/>
   <path class="fil6" d="M3230 4711c0,21 -16,38 -42,50 -23,11 -53,17 -87,17 -33,0 -64,-6 -86,-17 -26,-12 -42,-29 -42,-50 0,-21 16,-39 42,-51 22,-10 53,-16 86,-16 34,0 64,6 87,16 26,12 42,30 42,51zm-55 23c15,-7 24,-15 24,-23 0,-8 -9,-16 -24,-23 -19,-9 -45,-14 -74,-14 -29,0 -55,5 -74,14 -15,7 -24,15 -24,23 0,8 9,16 24,23 19,8 45,13 74,13 29,0 55,-5 74,-13z"/>
   <polygon class="fil5" points="2425,3408 3777,3408 3624,3554 2579,3554 "/>
   <path class="fil6" d="M2425 3393l1390 0 -185 176 -1057 0 -186 -176 38 0zm1314 31l-1275 0 121 114 1033 0 121 -114z"/>
   <g>
   </g>
   <g style="clip-path:url(#id0)">
    <g id="_2062046641088">
     <rect class="fil7" x="1399" y="1758" width="4216" height="1897"/>
    </g>
   </g>
   <path class="fil3" d="M1907 2137c142,282 -65,341 -63,512 4,228 269,519 456,543 258,32 352,178 447,313 270,-183 514,-165 736,21 400,-278 264,-397 -22,-471 75,127 193,202 85,271 -178,-255 -636,-228 -629,-384 5,-82 133,-126 215,-122 269,15 461,242 725,344 259,0 517,0 776,0 -151,-184 -499,-168 -740,-187 -36,-3 -84,-40 -80,-77 8,-58 219,-13 348,2 176,21 345,-8 481,-36 -125,-141 -1087,-81 -1096,-209 -4,-59 120,-70 186,-69 188,0 372,53 559,70 202,19 342,-35 389,-169 -173,24 -351,18 -525,0 -204,-20 -397,-114 -605,-114 -175,0 -544,162 -556,-115 -3,-72 54,-167 134,-150 242,52 532,178 751,172 218,-6 395,-102 481,-213 -115,52 -242,83 -364,73 -232,-20 -358,-104 -484,-164 -241,-114 -379,-223 -525,-217 -253,12 -349,366 -524,548 -46,0 -92,0 -138,0 -43,39 -92,98 -91,172 2,103 47,164 49,310 2,103 -21,190 -78,210 -69,-52 -98,-272 -73,-396 50,-253 -38,-343 -225,-468z"/>
   <path class="fil8" d="M1943 2181c62,153 14,236 -31,316 -27,48 -53,94 -52,152 1,107 63,229 147,329 89,106 202,187 294,198 257,33 355,173 449,307l1 1c133,-88 260,-127 382,-122 123,5 240,55 350,145 187,-131 249,-223 231,-289 -16,-61 -101,-104 -219,-138 14,21 29,40 43,58 15,20 29,38 40,56 36,55 45,101 -24,145l-12 8 -8 -12c-92,-131 -261,-186 -399,-231 -132,-43 -237,-77 -233,-162l0 -1c3,-47 39,-83 87,-106 45,-22 100,-32 143,-30l1 0c167,9 303,97 444,188 90,57 181,116 283,156l738 0c-130,-126 -374,-139 -583,-150 -43,-2 -85,-4 -123,-7 0,0 -4,0 -4,0 -20,-3 -44,-14 -61,-30 -18,-16 -31,-38 -29,-61l0 -2c7,-50 99,-47 202,-34 28,3 55,7 81,11 29,4 57,8 82,11 87,11 172,8 252,0 68,-7 133,-18 192,-29 -90,-52 -334,-70 -564,-87 -262,-19 -507,-37 -512,-113l0 -4c0,-30 23,-50 56,-62 29,-11 66,-16 99,-18 16,-1 32,-2 46,-2 113,1 223,20 334,39 76,13 151,26 227,32 100,9 184,1 248,-27 52,-23 91,-59 115,-108 -79,9 -158,13 -238,12 -89,-1 -177,-7 -265,-16 -90,-9 -178,-32 -266,-55 -111,-30 -222,-59 -337,-59 -43,0 -99,10 -159,21 -61,11 -125,23 -185,26 -121,5 -221,-27 -227,-176 -1,-14 0,-28 3,-42 7,-30 21,-61 42,-84 21,-24 49,-41 81,-42 9,-1 17,0 26,2 86,18 177,46 269,74 168,50 339,102 478,98 102,-3 194,-26 272,-60 60,-27 112,-61 153,-98 -42,15 -85,28 -128,36 -60,12 -121,17 -181,12 -194,-16 -314,-77 -421,-132 -23,-12 -46,-23 -67,-33 -71,-34 -133,-67 -189,-97 -132,-70 -230,-123 -330,-118 -160,7 -257,163 -354,319 -50,81 -100,162 -159,224l-4 4 -139 0c-19,18 -40,40 -55,66 -16,26 -27,57 -27,91 1,44 11,81 21,122 13,50 27,106 28,188 1,56 -5,108 -20,148 -14,38 -36,65 -68,76l-8 2 -6 -4c-36,-27 -62,-93 -76,-168 -15,-82 -17,-176 -3,-243 24,-123 15,-205 -22,-272 -31,-55 -83,-101 -152,-149zm-58 301c47,-81 95,-167 9,-338l-26 -51 48 32c95,63 165,118 206,191 40,72 50,161 24,292 -12,63 -10,153 4,231 12,64 32,119 58,144 18,-9 32,-29 42,-55 13,-36 19,-84 18,-137 -1,-78 -15,-132 -27,-181 -11,-42 -21,-81 -22,-129 -1,-40 12,-76 31,-107 19,-30 43,-56 65,-76l4 -4 138 0c55,-59 103,-136 150,-213 102,-164 203,-327 379,-335 108,-4 209,50 345,122 56,30 117,63 188,96 23,11 45,22 67,34 106,53 223,113 411,129 57,4 115,0 172,-12 63,-12 126,-33 185,-60l55 -25 -37 48c-46,61 -119,117 -210,157 -81,36 -177,59 -283,62 -144,4 -317,-48 -487,-99 -92,-28 -183,-55 -267,-73 -6,-2 -13,-2 -19,-2 -23,1 -43,14 -59,32 -17,19 -29,45 -35,70 -2,12 -4,24 -3,34 5,125 91,152 196,147 58,-2 121,-14 181,-25 61,-11 118,-22 164,-22 119,0 232,30 345,60 87,23 173,46 261,55 87,9 175,15 262,16 87,0 174,-4 260,-16l25 -3 -9 23c-24,70 -73,120 -141,150 -69,29 -158,39 -263,30 -77,-7 -153,-20 -229,-33 -110,-19 -220,-38 -329,-38 -13,0 -28,0 -44,1 -31,2 -64,7 -90,17 -22,8 -37,18 -37,33l0 2c4,50 236,67 484,85 262,19 541,39 608,115l18 19 -26 6c-68,14 -145,28 -227,36 -82,9 -169,11 -258,0 -25,-3 -54,-7 -83,-11 -28,-4 -56,-8 -81,-11 -87,-11 -164,-17 -168,7l0 1c-1,13 8,26 19,37 13,11 30,20 45,22l2 0c40,3 80,5 123,7 227,12 496,26 628,186l20 25 -811 0 -3 -2c-105,-40 -199,-101 -290,-160 -138,-88 -271,-174 -430,-182l0 0c-39,-2 -89,7 -129,27 -38,18 -68,45 -69,80l0 0c-4,62 92,93 211,132 138,45 307,100 406,230 34,-28 26,-58 3,-95 -10,-16 -24,-34 -39,-53 -22,-28 -46,-59 -66,-94l-19 -32 36 9c148,39 257,90 279,170 21,80 -46,185 -253,329l-9 6 -9 -7c-108,-91 -222,-141 -341,-146 -119,-5 -244,36 -377,125l-12 8 -18 -25c-90,-128 -184,-263 -427,-293 -100,-13 -221,-98 -314,-209 -88,-105 -153,-234 -155,-348 -1,-67 27,-117 56,-168z"/>
   <path class="fil6" d="M631 2792l18 5c6,-11 12,-17 16,-18 4,-2 12,-1 24,3l201 62c16,5 29,9 41,11 11,2 20,3 27,3 27,0 51,-13 71,-37 21,-24 38,-58 50,-102 13,-47 17,-87 10,-122 -6,-32 -23,-57 -51,-74 -6,-4 -15,-8 -26,-12 -11,-3 -24,-7 -40,-11l-166 -41c-18,-4 -30,-9 -35,-14 -9,-8 -13,-22 -12,-42l-17 -4 -40 140 17 5c11,-16 22,-25 34,-27 6,-1 18,1 35,4l160 34c17,3 27,5 30,6 42,12 65,34 71,66 3,11 1,25 -4,43 -5,19 -12,32 -19,41 -20,21 -48,27 -83,17 0,0 -1,-1 -5,-2 -4,-1 -10,-3 -18,-6l-179 -59c-16,-5 -26,-10 -31,-16 -7,-7 -10,-20 -9,-36l-17 -5 -53 188zm477 -1025l-15 -10 -67 103 15 10c9,-8 17,-12 22,-13 6,0 13,2 21,8l78 49 -80 16c-11,1 -21,3 -29,4 -9,1 -15,2 -21,3 -9,1 -15,1 -18,-1 -5,-3 -6,-9 -3,-18l-15 -10 -120 184 15 10c11,-11 20,-15 28,-10l268 174c9,5 14,11 16,17 1,6 0,15 -4,26l15 10 69 -106 -15 -10c-10,9 -18,14 -25,15 -6,1 -14,-1 -23,-7l-245 -158 248 -41c12,-2 23,-3 32,-4 9,-1 16,-1 22,-1 20,0 36,5 50,14 7,4 13,9 19,15 6,6 9,12 9,18 0,2 -1,5 -2,8 0,4 -2,9 -4,14l15 10 67 -103 -15 -10c-9,8 -16,12 -21,13 -4,0 -10,-3 -20,-10l-259 -167c-7,-5 -11,-10 -12,-17 -1,-3 1,-11 4,-25zm606 -80l-13 -13c-11,7 -21,10 -27,10 -7,0 -14,-3 -21,-11l-211 -220c-7,-8 -10,-15 -9,-21 0,-5 5,-13 12,-25l-12 -13 -141 134 13 13c10,-5 18,-8 24,-8 6,0 12,3 19,10l212 222c7,7 10,13 10,19 0,7 -3,15 -9,25l12 13 141 -135zm265 -658l-10 -15 -96 61 10 15c13,-6 22,-6 26,0 1,3 3,7 5,13 17,56 32,104 44,146 13,42 23,77 31,105l-191 -182c-2,-2 -4,-4 -5,-6 -5,-8 -1,-17 13,-27l-10 -16 -149 96 10 15c7,-4 14,-4 22,-1 3,2 9,6 18,14l246 209c4,3 7,6 8,8 5,7 3,15 -4,24l10 15 129 -82 -10 -15c-9,2 -16,0 -20,-6 -1,-2 -3,-6 -4,-12l-81 -321c-5,-18 -3,-31 8,-38zm719 15l-12 0c-14,50 -31,86 -51,106 -20,21 -45,36 -74,44 -10,3 -19,4 -25,2 -12,-1 -23,-17 -31,-47l-43 -153c3,-1 6,-2 8,-3 3,0 6,-1 9,-2 25,-7 45,-7 60,-1 13,5 26,17 40,36l10 -2 -54 -134 -11 3c7,20 2,36 -15,46 -4,3 -10,6 -20,9 -9,4 -22,7 -37,12l-9 -33c-5,-17 -6,-28 -5,-33 2,-10 12,-18 29,-23 37,-10 67,-10 91,0 20,8 41,26 63,54l7 -2 -57 -126c-8,9 -15,13 -20,15l-284 80 5 17c12,0 21,1 26,5 5,3 9,10 12,20l81 288c3,11 3,20 1,25 -3,6 -9,12 -20,19l5 17 275 -77c12,-4 25,-6 41,-6l5 -156zm664 119l1 -18c-9,-1 -15,-4 -17,-11 -12,-31 -22,-56 -30,-75 -8,-19 -13,-33 -16,-41 -20,-44 -41,-81 -63,-111 14,-8 26,-15 36,-22 10,-6 18,-11 24,-16 20,-18 31,-36 31,-55 2,-39 -33,-60 -104,-62l-285 -8 -1 18c12,3 19,7 23,11 5,5 6,12 6,22l-9 304c0,10 -3,18 -7,22 -4,5 -12,8 -24,11l-1 18 191 6 1 -18c-20,-5 -30,-17 -30,-38l5 -149 38 -10c15,26 27,49 38,68 10,20 17,36 23,50 10,28 16,48 15,59 0,11 -7,19 -20,22l-1 18 176 5zm-164 -341c-2,42 -36,71 -104,86l2 -71c1,-29 7,-45 18,-50 6,-3 15,-4 27,-4 38,1 57,14 57,39zm757 344c11,-38 -1,-74 -35,-107 -7,-7 -41,-32 -101,-75 -36,-25 -52,-48 -46,-67 3,-13 13,-22 29,-27 13,-3 29,-2 46,3 62,17 92,60 92,129l9 3 36 -131c-14,2 -24,1 -30,0 -4,-1 -13,-5 -28,-12 -18,-7 -34,-14 -48,-19 -14,-5 -26,-9 -35,-11 -45,-13 -85,-14 -120,-5 -40,11 -65,35 -75,71 -2,7 -3,14 -3,20 -1,26 7,48 24,66 5,5 12,12 22,20 11,8 24,18 41,29l33 23c25,17 42,30 50,38 17,17 23,34 17,52 -5,21 -19,35 -42,42 -19,7 -42,7 -68,-1 -39,-11 -68,-33 -87,-68 -16,-28 -24,-61 -24,-100l-11 -3 -31 166c16,-1 25,-1 29,-1 1,1 4,2 8,4 4,2 10,4 17,8 15,7 30,13 44,18 15,6 29,10 44,14 56,16 105,19 149,8 50,-13 82,-42 94,-87zm329 334l9 -16c-10,-9 -16,-17 -18,-23 -2,-7 0,-14 6,-24l152 -264c5,-9 11,-13 18,-14 4,-1 13,0 27,4l9 -15 -169 -97 -8 15c8,8 13,15 14,21 2,6 1,13 -4,21l-154 266c-4,8 -10,13 -16,15 -6,2 -14,1 -26,-2l-9 16 169 97zm624 159l77 -112c-16,-4 -30,-11 -43,-23l-172 -166c-8,-7 -14,-17 -18,-30l-109 76 7 7c23,-11 45,-16 66,-14 20,2 43,12 68,29l-218 228c-8,8 -14,12 -21,13 -6,0 -14,-2 -25,-8l-12 12 141 134 11 -12c-7,-11 -10,-20 -11,-27 0,-7 3,-15 11,-22l218 -228c34,45 42,90 23,136l7 7zm144 722l15 -9c0,-6 1,-11 1,-16 0,-4 1,-7 2,-9 0,-3 5,-9 12,-16l224 -231c5,-4 8,-7 12,-8 6,-4 13,-3 21,3l13 -7 -95 -163 -12 8c2,7 0,13 -7,17 -4,2 -9,4 -17,5l-322 58c-15,3 -30,1 -44,-7l-16 9 61 104 15 -9c-2,-19 2,-30 11,-36 1,0 2,-1 4,-2 2,0 3,-1 5,-2 9,-2 17,-3 23,-5 7,-2 13,-3 17,-4l73 -16c13,24 20,45 21,63 1,12 0,24 -1,35 -2,12 -6,23 -10,33 -5,11 -11,20 -18,28 -7,9 -15,15 -24,21 -12,6 -24,5 -37,-5l-15 9 88 152zm58 -248c1,-37 -6,-68 -22,-93l-2 -4 148 -30 -124 127zm243 746c39,-10 63,-39 74,-86 2,-9 6,-51 11,-125 3,-44 14,-69 33,-74 14,-4 27,-1 38,10 10,11 17,24 22,41 18,62 -3,111 -63,146l3 9 130 -37c-8,-11 -13,-20 -15,-26 -1,-3 -3,-13 -5,-30 -3,-19 -5,-36 -8,-50 -3,-15 -6,-27 -9,-37 -12,-44 -32,-79 -58,-104 -30,-29 -63,-37 -100,-27 -7,2 -13,4 -19,7 -22,13 -37,31 -44,55 -2,7 -3,17 -5,30 -1,13 -2,29 -3,50l-2 40c-2,30 -4,51 -7,62 -6,23 -18,37 -36,42 -20,6 -40,1 -58,-14 -15,-13 -27,-33 -34,-59 -11,-39 -7,-75 12,-110 16,-28 40,-52 73,-72l-3 -11 -158 59c10,13 15,22 16,25 0,1 1,4 2,9 0,5 1,11 2,18 1,17 4,33 7,48 3,15 6,30 10,44 16,56 40,100 71,132 37,36 78,48 123,35z"/>
  </g>
 </g>
</svg>
